<?xml version="1.0" encoding="UTF-8" standalone="no"?>
<!-- Created with Inkscape (http://www.inkscape.org/) -->

<svg
   width="116.42233mm"
   height="55.969009mm"
   viewBox="0 0 116.42233 55.96901"
   version="1.1"
   id="svg1"
   xml:space="preserve"
   sodipodi:docname="parysek-investments.svg"
   inkscape:version="1.4.2 (f4327f4, 2025-05-13)"
   inkscape:export-filename="parysekInvestmentsLogo.png"
   inkscape:export-xdpi="870.82764"
   inkscape:export-ydpi="870.82764"
   xmlns:inkscape="http://www.inkscape.org/namespaces/inkscape"
   xmlns:sodipodi="http://sodipodi.sourceforge.net/DTD/sodipodi-0.dtd"
   xmlns="http://www.w3.org/2000/svg"
   xmlns:svg="http://www.w3.org/2000/svg"><sodipodi:namedview
     id="namedview1"
     pagecolor="#ffffff"
     bordercolor="#000000"
     borderopacity="0.25"
     inkscape:showpageshadow="2"
     inkscape:pageopacity="0.0"
     inkscape:pagecheckerboard="0"
     inkscape:deskcolor="#d1d1d1"
     inkscape:document-units="mm"
     inkscape:zoom="0.61484695"
     inkscape:cx="134.99294"
     inkscape:cy="307.39357"
     inkscape:window-width="1280"
     inkscape:window-height="778"
     inkscape:window-x="-6"
     inkscape:window-y="-6"
     inkscape:window-maximized="1"
     inkscape:current-layer="svg1"><inkscape:page
       x="0"
       y="0"
       width="116.42233"
       height="55.969013"
       id="page2"
       margin="0"
       bleed="0" /></sodipodi:namedview><defs
     id="defs1" /><g
     id="g2"
     transform="translate(-6.060683,3.701347)"><path
       style="font-weight:bold;font-size:13.4056px;font-family:Poppins;-inkscape-font-specification:'Poppins Bold';fill:#0a3778;stroke-width:2"
       d="m 69.919659,17.768711 q 0,0.81774 -0.375357,1.50142 -0.375357,0.67028 -1.152881,1.08586 -0.777525,0.41557 -1.930407,0.41557 h -1.420993 v 3.37821 H 62.747663 V 14.73904 h 3.713351 q 1.126071,0 1.903595,0.38876 0.777525,0.388771 1.166288,1.072451 0.388762,0.68369 0.388762,1.56846 z m -3.632918,1.17969 q 0.656875,0 0.978609,-0.30833 0.321735,-0.30833 0.321735,-0.87136 0,-0.56304 -0.321735,-0.87137 -0.321734,-0.30833 -0.978609,-0.30833 h -1.24672 v 2.35939 z m 10.684271,3.53908 h -3.512267 l -0.563035,1.66229 H 70.496107 L 73.90113,14.73904 h 2.654308 l 3.405023,9.410731 h -2.426414 z m -0.589846,-1.76954 -1.166288,-3.44524 -1.152881,3.44524 z m 9.410724,3.43183 -1.957218,-3.55248 h -0.549629 v 3.55248 H 80.992685 V 14.73904 h 3.847407 q 1.112665,0 1.89019,0.38876 0.79093,0.388771 1.179696,1.072451 0.38876,0.67028 0.38876,1.50143 0,0.93839 -0.53623,1.6757 -0.522814,0.73731 -1.555045,1.04564 l 2.171705,3.72675 z m -2.506847,-5.17456 h 1.420993 q 0.630063,0 0.938392,-0.30833 0.321734,-0.30833 0.321734,-0.87136 0,-0.53623 -0.321734,-0.84455 -0.308329,-0.30833 -0.938392,-0.30833 h -1.420993 z m 14.518265,-4.236171 -3.25756,6.300631 v 3.1101 h -2.29235 v -3.1101 l -3.25757,-6.300631 h 2.60069 l 1.82316,3.941251 1.80976,-3.941251 z m 4.330012,9.504571 q -1.03223,0 -1.84998,-0.33514 -0.817742,-0.33514 -1.313752,-0.99201 -0.4826,-0.65688 -0.50941,-1.58186 H 100.9 q 0.0536,0.52281 0.36195,0.80433 0.30833,0.26811 0.80434,0.26811 0.50941,0 0.80433,-0.22789 0.29493,-0.2413 0.29493,-0.65688 0,-0.34854 -0.2413,-0.57644 -0.2279,-0.22789 -0.57644,-0.37535 -0.33514,-0.14746 -0.96521,-0.33514 -0.91158,-0.28152 -1.488021,-0.56304 -0.576441,-0.28152 -0.992011,-0.83115 -0.41558,-0.54963 -0.41558,-1.43439 0,-1.31375 0.9518,-2.05106 0.951802,-0.750711 2.480042,-0.750711 1.55505,0 2.50684,0.750711 0.9518,0.73731 1.01883,2.06446 h -2.48004 q -0.0268,-0.45579 -0.33514,-0.7105 -0.30833,-0.26811 -0.79093,-0.26811 -0.41557,0 -0.67028,0.2279 -0.2547,0.21449 -0.2547,0.63006 0,0.45579 0.42898,0.7105 0.42898,0.2547 1.34056,0.54963 0.91158,0.30833 1.47461,0.58984 0.57644,0.28152 0.99202,0.81774 0.41557,0.53623 0.41557,1.38078 0,0.80434 -0.41557,1.46121 -0.40217,0.65688 -1.1797,1.04564 -0.77752,0.38876 -1.83656,0.38876 z m 7.13177,-7.668 v 1.90359 h 3.06989 v 1.76954 h -3.06989 v 2.06446 h 3.47205 v 1.83657 h -5.7644 V 14.73904 h 5.7644 v 1.836571 z m 10.41616,7.57416 -3.16372,-4.15573 v 4.15573 h -2.29236 V 14.73904 h 2.29236 v 4.128931 l 3.13691,-4.128931 h 2.69452 l -3.64632,4.611531 3.78038,4.7992 z"
       id="text3"
       aria-label="PARYSEK" /><path
       style="font-size:5.29167px;font-family:Poppins;-inkscape-font-specification:Poppins;fill:#0a3778;stroke-width:3.56275"
       d="m 63.605466,27.325035 v 6.570239 h -0.857804 v -6.570239 z m 6.626789,6.570239 h -0.857806 l -3.450076,-5.231679 v 5.231679 h -0.857805 v -6.579661 h 0.857805 l 3.450076,5.222253 v -5.222253 h 0.857806 z m 6.890716,-6.570239 -2.479152,6.570239 h -0.989777 l -2.479153,-6.570239 h 0.914364 l 2.064391,5.665301 2.06439,-5.665301 z m 1.800455,0.697569 v 2.196362 h 2.394315 v 0.706972 h -2.394315 v 2.262343 h 2.677108 v 0.706993 H 78.06562 v -6.579661 h 3.534914 v 0.706991 z m 6.0612,5.938651 q -0.650414,0 -1.168865,-0.226235 -0.509037,-0.235657 -0.801256,-0.640991 -0.292219,-0.414775 -0.301646,-0.952072 h 0.914365 q 0.04713,0.461892 0.377059,0.782397 0.339353,0.311063 0.980343,0.311063 0.612721,0 0.961496,-0.30164 0.358216,-0.311081 0.358216,-0.79182 0,-0.377064 -0.207387,-0.612721 -0.207386,-0.235657 -0.518451,-0.358199 -0.311081,-0.122558 -0.838955,-0.263946 -0.650433,-0.169586 -1.046336,-0.339352 -0.386485,-0.169764 -0.669277,-0.527873 -0.273367,-0.36764 -0.273367,-0.980361 0,-0.537297 0.273367,-0.952073 0.273367,-0.414757 0.76354,-0.64099 0.499604,-0.226235 1.140596,-0.226235 0.923802,0 1.508235,0.461892 0.593856,0.461892 0.66928,1.225442 h -0.942649 q -0.0472,-0.377064 -0.395911,-0.659857 -0.348774,-0.292216 -0.923785,-0.292216 -0.537316,0 -0.876666,0.282793 -0.339348,0.27337 -0.339348,0.772975 0,0.358197 0.19796,0.584431 0.207369,0.226235 0.499603,0.348775 0.301641,0.113122 0.838938,0.263947 0.650433,0.179098 1.046343,0.358198 0.395911,0.169765 0.678703,0.537314 0.282793,0.358199 0.282793,0.980344 0,0.480756 -0.254524,0.904937 -0.254504,0.424199 -0.754106,0.688127 -0.499605,0.263946 -1.178308,0.263946 z m 7.494023,-6.63622 v 0.697569 H 90.68762 v 5.87267 h -0.857803 v -5.87267 h -1.800451 v -0.697569 z m 7.720261,0.0472 v 6.523101 h -0.857808 v -4.864038 l -2.168091,4.864038 h -0.603297 l -2.177498,-4.87348 v 4.87348 h -0.857803 v -6.523101 h 0.923786 l 2.413172,5.391931 2.413172,-5.391931 z m 2.30947,0.650432 v 2.196361 h 2.39431 v 0.706974 h -2.39431 v 2.262343 h 2.67711 v 0.706991 h -3.53491 v -6.579661 h 3.53491 v 0.706992 z m 9.14365,5.872669 h -0.8578 l -3.45007,-5.231673 v 5.231679 h -0.85783 v -6.579658 h 0.85783 l 3.45007,5.222255 v -5.222255 h 0.8578 z m 5.50503,-6.570231 v 0.697567 h -1.79103 v 5.87267 h -0.8578 v -5.87267 h -1.80045 v -0.697567 z m 3.13901,6.63622 q -0.65043,0 -1.16889,-0.226235 -0.50902,-0.235658 -0.80124,-0.640992 -0.29222,-0.414774 -0.30165,-0.952071 h 0.91438 q 0.0471,0.46189 0.37704,0.782397 0.33935,0.311062 0.98036,0.311062 0.61272,0 0.9615,-0.30164 0.35819,-0.311081 0.35819,-0.791819 0,-0.377064 -0.20736,-0.612723 -0.20738,-0.235657 -0.51847,-0.358198 -0.31107,-0.122559 -0.83895,-0.263946 -0.65042,-0.169587 -1.04634,-0.339351 -0.38648,-0.169765 -0.66928,-0.527874 -0.27337,-0.36764 -0.27337,-0.980362 0,-0.537297 0.27337,-0.952071 0.27338,-0.414758 0.76355,-0.640992 0.4996,-0.226233 1.1406,-0.226233 0.92378,0 1.50824,0.46189 0.59386,0.461893 0.66926,1.225442 h -0.94264 q -0.0472,-0.377062 -0.39591,-0.659855 -0.34878,-0.292216 -0.9238,-0.292216 -0.53729,0 -0.87664,0.282792 -0.33935,0.27337 -0.33935,0.772974 0,0.358198 0.19794,0.584433 0.20738,0.226233 0.4996,0.348773 0.30165,0.113123 0.83895,0.263947 0.65044,0.1791 1.04636,0.358199 0.3959,0.169765 0.6787,0.537315 0.2828,0.358199 0.2828,0.980344 0,0.480757 -0.25453,0.904936 -0.25452,0.424199 -0.75412,0.688127 -0.4996,0.263947 -1.1783,0.263947 z"
       id="text4"
       aria-label="INVESTMENTS" /></g><g
     id="g1"
     transform="translate(-6.060683,4e-5)"><path
       style="fill:#0a3778;fill-opacity:1;stroke:none;stroke-width:2"
       d="M 29.867714,4.69631 V 44.99566 L 20.443123,39.13169 V 10.15335 Z m 0,0 v 40.29935 l 9.42459,-5.86397 V 10.15335 Z"
       id="path6" /><path
       style="fill:#0046aa;fill-opacity:1;stroke:none;stroke-width:2"
       d="M 29.867714,55.96897 V 49.34475 L 12.281386,38.28909 12.065925,10.62737 6.154233,14.43529 6.060683,41.72685 Z m 0,0 v -6.62422 l 17.58633,-11.05566 0.21546,-27.66172 5.91169,3.80792 0.0935,27.29156 z"
       id="path4" /><path
       style="fill:#0046aa;fill-opacity:1;stroke:none;stroke-width:2"
       d="M 29.867714,5.68558 V -4e-5 l -11.108389,6.76138 -0.09355,26.98754 8.138359,5.79975 0.0468,-32.2728 z m 0,0 V -4e-5 l 11.10839,6.76138 0.0935,26.98754 -8.13836,5.79975 -0.0468,-32.2728 z"
       id="path5" /></g></svg>
