<?xml version="1.0" encoding="UTF-8" standalone="no"?>
<!-- Created with Inkscape (http://www.inkscape.org/) -->

<svg
   width="181.95016mm"
   height="60.985313mm"
   viewBox="0 0 181.95016 60.985313"
   version="1.1"
   id="svg1"
   xml:space="preserve"
   xmlns="http://www.w3.org/2000/svg"
   xmlns:svg="http://www.w3.org/2000/svg"><defs
     id="defs1" /><g
     id="layer1"
     transform="translate(-12.102104,-105.68236)"><path
       id="path1"
       style="fill:#005e39;fill-opacity:1;stroke-width:3.96875;stroke-linecap:round;stroke-linejoin:round"
       d="m 12.102104,105.83592 v 60.79512 h 15.38994 l -0.02447,-20.63219 10.500651,-0.0594 14.030153,20.72822 h 18.0944 L 54.282477,144.10083 c 0,0 9.068375,-3.4432 11.331091,-10.38231 2.262716,-6.93911 1.942706,-13.9603 -1.245919,-19.10219 -3.188625,-5.14189 -9.282696,-8.52414 -17.14469,-8.78034 -7.861994,-0.2562 -35.120855,-0.11459 -35.120855,-0.11459 z m 15.332397,13.63534 c 0,0 14.252101,-0.0624 16.737997,0 2.485896,0.0624 4.795574,0.86023 6.12469,2.64273 1.462919,1.96195 1.755708,5.43941 0.434082,7.36596 -1.264678,1.84353 -2.661722,3.28888 -5.860624,3.31401 -5.844753,0.0459 -17.519861,-0.15089 -17.519861,-0.15089 z" /><path
       id="path2"
       style="fill:#005e39;fill-opacity:1;stroke-width:3.96875;stroke-linecap:round;stroke-linejoin:round"
       d="m 77.419047,105.72223 0.118856,60.90881 c 0,0 25.630617,0.13225 38.442617,-0.1058 4.73194,-0.0879 17.46119,-3.33042 17.79736,-16.25483 0.34815,-13.38515 -11.50886,-15.18718 -11.50886,-15.18718 0,0 10.45857,-2.52099 9.4325,-15.24662 -0.58997,-7.31692 -6.58604,-14.20188 -16.72973,-14.11438 -12.57228,0.10842 -37.552743,0 -37.552743,0 z m 15.424898,13.37283 c 0,0 12.155305,-0.0251 17.915705,0.0294 2.96595,0.0281 5.81221,1.70087 5.84357,5.2803 0.0349,3.981 -2.75456,5.53638 -5.60586,5.54695 -5.63328,0.0209 -18.123959,-0.0594 -18.123959,-0.0594 z m 19.378665,22.8508 c 2.96595,0.0281 6.00083,2.07759 6.03219,5.65702 0.0349,3.981 -3.13232,5.62061 -5.98362,5.63118 -5.63328,0.0209 -19.561593,0.0816 -19.561593,0.0816 l -0.03721,-11.36107 c 0,0 13.789833,-0.0636 19.550233,-0.009 z" /><path
       style="fill:#005e39;fill-opacity:1;stroke-width:3.96875;stroke-linecap:round;stroke-linejoin:round"
       d="m 143.448,166.63104 0.11865,-60.90964 h 50.48562 v 13.87792 h -35.83234 v 10.14458 h 30.19646 v 12.39894 h -30.13713 v 10.73784 h 35.77301 v 13.75036 z"
       id="path3" /></g></svg>
